HIERARCHY
ROOT Hips
{
  OFFSET 263.056 91.6644 -274.608
  CHANNELS 6 Xposition Yposition Zposition Zrotation Xrotation Yrotation
  JOINT LeftUpLeg
  {
    OFFSET 8.64259 1.95398 -2.38835
    CHANNELS 3 Zrotation Xrotation Yrotation
    JOINT LeftLeg
    {
      OFFSET 43.7702 0 0
      CHANNELS 3 Zrotation Xrotation Yrotation
      JOINT LeftFoot
      {
        OFFSET 40.6238 0 0
        CHANNELS 3 Zrotation Xrotation Yrotation
        JOINT LeftToeBase
        {
          OFFSET 12.7242 0 0
          CHANNELS 3 Zrotation Xrotation Yrotation
          End Site
          {
            OFFSET 0 0 0
          }
        }
      }
    }
  }
  JOINT RightUpLeg
  {
    OFFSET -8.2249 1.95398 -2.59336
    CHANNELS 3 Zrotation Xrotation Yrotation
    JOINT RightLeg
    {
      OFFSET 43.5653 0 0
      CHANNELS 3 Zrotation Xrotation Yrotation
      JOINT RightFoot
      {
        OFFSET 40.6238 0 0
        CHANNELS 3 Zrotation Xrotation Yrotation
        JOINT RightToeBase
        {
          OFFSET 12.7242 0 0
          CHANNELS 3 Zrotation Xrotation Yrotation
          End Site
          {
            OFFSET 0 0 0
          }
        }
      }
    }
  }
  JOINT Spine
  {
    OFFSET 0.165834 0.87714 6.61349
    CHANNELS 3 Zrotation Xrotation Yrotation
    JOINT Spine1
    {
      OFFSET 7.38963 1.71661e-005 0
      CHANNELS 3 Zrotation Xrotation Yrotation
      JOINT Spine2
      {
        OFFSET 11.9445 1.14441e-005 0
        CHANNELS 3 Zrotation Xrotation Yrotation
        JOINT Spine3
        {
          OFFSET 14.7254 4.19617e-005 0
          CHANNELS 3 Zrotation Xrotation Yrotation
          JOINT Spine4
          {
            OFFSET 10.9679 0 0
            CHANNELS 3 Zrotation Xrotation Yrotation
            JOINT RightShoulder
            {
              OFFSET 2.46616 -1.6653 3.69651
              CHANNELS 3 Zrotation Xrotation Yrotation
              JOINT RightArm
              {
                OFFSET 13.0012 0 0
                CHANNELS 3 Zrotation Xrotation Yrotation
                JOINT RightForeArm
                {
                  OFFSET 28.7848 1.52588e-005 0
                  CHANNELS 3 Zrotation Xrotation Yrotation
                  JOINT RightHand
                  {
                    OFFSET 26.5688 1.52588e-005 0
                    CHANNELS 3 Zrotation Xrotation Yrotation
                    End Site
                    {
                      OFFSET 0 0 0
                    }
                  }
                }
              }
            }
            JOINT LeftShoulder
            {
              OFFSET 2.38034 -1.29275 -3.7523
              CHANNELS 3 Zrotation Xrotation Yrotation
              JOINT LeftArm
              {
                OFFSET 16.3182 6.10352e-005 0
                CHANNELS 3 Zrotation Xrotation Yrotation
                JOINT LeftForeArm
                {
                  OFFSET 27.0901 0 0
                  CHANNELS 3 Zrotation Xrotation Yrotation
                  JOINT LeftHand
                  {
                    OFFSET 24.5451 1.52588e-005 0
                    CHANNELS 3 Zrotation Xrotation Yrotation
                    End Site
                    {
                      OFFSET 0 0 0
                    }
                  }
                }
              }
            }
            JOINT Neck
            {
              OFFSET 5.0226 -0.0266342 0
              CHANNELS 3 Zrotation Xrotation Yrotation
              JOINT Head
              {
                OFFSET 6.69364 2.86102e-005 0
                CHANNELS 3 Zrotation Xrotation Yrotation
                End Site
                {
                  OFFSET 0 0 0
                }
              }
            }
          }
        }
      }
    }
  }
}
MOTION
Frames:	19
Frame Time:	0.0416667
-304.978 76.6283 -311.374 70.1881 -24.6331 94.7146 6.74928 51.7503 53.475 68.7252 44.3637 174.658 67.685 -2.342 107.584 32.6549 8.33877 171.447 175.329 78.8312 97.2654 -75.7245 32.2103 5.88723 13.1446 3.05443 8.72226 130.488 24.9823 15.7314 6.93278 5.3104 -90.4771 16.5844 13.4311 -3.23945 4.9786 13.2755 -3.83719 -18.1271 13.7719 1.02571 1.8855 13.7719 1.02571 98.9403 30.283 28.3201 34.9492 -44.6013 -104.289 -118.433 10.8937 179.97 27.3022 21.0114 56.4274 -144.44 -32.0841 -5.64511 -45.9248 29.2014 86.1672 160.154 -5.92496 -70.7443 29.1622 4.60692 12.1594 53.9772 9.3677 72.8116 79.1242 -8.30141 24.2377 
-305.353 76.4379 -311.718 70.2456 -24.744 94.7612 7.54275 52.2063 52.7922 69.3938 44.0032 174.19 68.6296 -3.28122 107.632 33.9631 6.98952 171.747 175.494 79.2135 97.4271 -75.6179 30.9761 5.332 13.5356 3.39788 9.00547 130.945 23.6365 14.3113 7.01566 5.238 -90.5014 16.7426 13.577 -3.34229 5.1381 13.4166 -3.94662 -17.9805 13.9415 0.974164 2.03212 13.9414 0.974159 96.1111 31.9566 28.6509 36.3322 -45.6855 -101.904 -118.186 10.5911 179.97 27.258 21.3332 57.4473 -145.03 -31.8826 -6.42701 -46.0043 29.0153 86.6325 161.106 -5.41633 -71.8137 28.1846 4.88348 13.7014 51.9213 9.02883 73.2749 79.8799 -7.41031 25.2235 
-306.441 75.8703 -312.715 70.4151 -25.0654 94.8938 10.0376 53.3163 50.5913 71.4909 42.9952 172.596 71.3886 -5.83419 107.89 38.0541 2.84197 172.74 175.882 80.291 97.949 -75.5489 26.3537 3.85554 15.4954 5.10588 9.63372 131.34 19.4057 10.3211 7.24344 5.02958 -90.5737 17.199 13.9725 -3.64312 5.59786 13.7986 -4.26533 -17.5565 14.408 0.813838 2.45615 14.408 0.813833 87.8435 36.6015 29.6939 40.8796 -48.599 -94.4953 -117.339 9.62289 179.97 27.3903 22.327 60.2114 -146.654 -31.3188 -8.56384 -46.3048 28.4292 87.9096 163.673 -4.23631 -74.853 25.323 5.48666 17.9822 45.1694 8.22926 74.3559 81.9363 -4.71512 29.0537 
-308.192 74.9104 -314.319 70.6952 -25.5822 95.1014 14.7885 54.2933 46.2551 75.4644 41.4732 169.08 75.9325 -9.34719 108.666 46.0719 -4.90777 174.997 175.954 81.796 99.3057 -76.6059 17.9824 1.93406 23.0336 7.46686 10.0231 128.023 11.0173 3.41513 7.57338 4.69732 -90.6982 17.9288 14.5291 -4.13919 6.33215 14.3328 -4.78646 -16.874 15.0863 0.519623 3.13869 15.0862 0.519612 74.3663 43.4607 31.6213 49.8418 -52.3721 -81.1149 -115.627 7.85661 179.97 28.2924 24.1487 64.1728 -149.017 -30.4583 -11.6393 -46.9284 27.3194 89.7034 167.244 -3.08099 -79.5328 20.7912 5.91333 24.3246 34.3535 6.87076 75.272 84.3976 0.0629118 35.5495 
-310.556 73.5365 -316.493 71.0883 -26.2818 95.3742 22.9647 53.34 38.7156 82.4206 39.4783 161.596 82.3717 -12.7529 110.201 62.1494 -18.3291 -178.859 177.343 80.8499 99.8932 -78.7205 4.99406 0.0266177 52.0704 5.2331 4.16291 106.856 -3.3181 -12.2899 7.95525 4.25288 -90.8875 18.9081 15.137 -4.8401 7.3158 14.9094 -5.51445 -15.9481 15.8747 0.0475093 4.06456 15.8747 0.0475144 56.0434 51.6347 34.71 64.254 -55.0892 -61.1745 -112.835 5.35037 179.971 30.337 26.9871 68.969 -151.738 -29.3434 -15.1779 -47.9115 25.4534 91.531 171.11 -2.73476 -85.398 15.1601 5.69005 31.8851 21.3533 4.89997 75.1903 86.0958 7.01807 43.3545 
-313.519 71.5319 -319.195 71.599 -27.1521 95.7026 35.9363 46.0756 27.5156 94.9854 35.6869 145.592 90.7125 -14.1236 111.739 82.9568 -30.9757 -168.623 -173.967 71.8586 91.8692 -69.8024 -8.43805 -1.24528 99.08 -12.738 -3.75543 57.8315 -5.57838 -35.9926 8.27701 3.71948 -91.1708 20.0842 15.5573 -5.75036 8.49301 15.2893 -6.44256 -14.8112 16.5479 -0.683814 5.20147 16.5479 -0.683821 35.8025 59.6873 38.7451 79.0187 -54.8171 -39.8857 -109.194 6.61731 179.262 32.9699 30.7939 74.8334 -153.797 -28.0874 -18.1951 -49.1683 22.1043 92.3078 174.665 -3.34645 -91.5269 9.24116 4.63788 39.8346 7.31607 3.00214 74.0969 86.096 15.5576 51.9689 
-316.966 67.746 -321.883 72.2318 -28.1794 96.0764 61.666 11.4967 15.7882 117.127 27.9389 98.2565 104.699 -4.93581 113.511 49.3683 -9.67257 168.977 -168.244 69.3952 85.4317 -61.9868 -18.1823 -2.36962 122.072 -20.6733 -1.88659 32.0737 1.58602 -43.7023 10.3761 2.8187 -91.192 22.2093 19.5199 -7.22365 10.6639 19.1845 -8.10127 -13.0831 20.7469 -0.778953 6.92958 20.7469 -0.778967 -98.5567 74.666 111.44 126.437 -21.417 17.4634 -46.1469 -68.2432 -128.499 32.5682 31.8028 81.6071 -169.126 -22.3969 -34.6045 -53.1226 30.046 103.989 177.35 -4.46957 -97.9039 3.71997 2.87112 47.4464 -14.0682 -8.35457 62.3921 80.255 26.7925 70.4095 
-321.562 63.2464 -325.193 72.9874 -29.345 96.4817 83.9758 -8.62778 8.02863 126.344 5.2583 85.5664 132.325 20.2891 114.893 23.3733 27.6352 138.467 -161.527 72.5684 78.3098 -60.7701 -23.7579 -3.5232 130.21 -21.5066 -0.842276 24.2753 4.60503 -46.3311 7.5398 2.63662 -92.7203 22.5591 13.0822 -8.96941 10.9113 12.6773 -9.53663 -12.0199 15.1661 -4.57946 7.99279 15.1661 -4.57948 24.8006 70.6378 25.6073 99.3486 -56.4433 -29.0029 -98.7726 -59.2005 -166.678 32.1969 38.0561 91.7397 -155.434 -34.4896 -13.1355 -57.3606 2.0407 84.6013 179.841 -6.66656 -106.403 -0.909085 0.73705 54.6313 -17.8048 14.9118 70.7477 84.7726 35.6896 64.7632 
-327.817 55.2692 -330.059 73.8463 -30.6204 96.89 174.195 11.4787 77.9655 -141.313 46.6262 44.512 59.1078 -16.1608 16.8752 108.698 80.1466 -1.47567 -137.269 79.6224 53.1216 -64.4639 -25.7301 -4.59626 132.562 -18.8929 -1.22093 22.6259 5.38963 -47.7301 6.81386 1.88008 -93.6932 23.7403 11.0668 -10.5838 12.0694 10.5931 -11.0579 -10.6804 13.7245 -6.75316 9.33223 13.7245 -6.75317 28.3424 72.4427 22.1288 76.0283 -57.7353 -43.2181 -107.843 -41.8086 179.96 26.0831 36.8284 103.392 -148.194 -36.247 -6.34637 -62.0144 6.49558 75.0849 -179.025 -8.57943 -113.682 -4.62588 -1.53414 60.9162 -36.1833 13.662 77.2998 78.1974 45.5364 76.5551 
-327.705 60.4829 -330.796 74.631 -31.9517 97.163 169.499 6.23655 99.264 -83.8779 49.5659 8.16505 43.0826 -10.19 -4.1023 146.328 68.5141 -48.9086 -154.698 72.1507 71.7875 -52.4511 -28.1921 -4.71205 131.692 -21.6662 -1.3576 23.2514 5.24968 -48.4806 7.25532 1.14505 -94.2581 25.2869 11.4686 -12.164 13.6049 10.9266 -12.6518 -9.10052 14.5774 -8.14984 10.9121 14.5775 -8.14985 -35.23 83.9207 62.2464 96.2784 -52.7964 -14.5254 -97.1023 -65.6412 -178.998 20.6166 32.8637 110.21 -149.699 -34.7344 -9.03229 -66.3936 2.76928 73.483 -178.695 -10.7198 -119.972 -7.47496 -3.70658 66.2948 -55.9128 11.822 73.5083 58.1887 51.6895 103.709 
-330.261 60.6034 -333.276 74.2208 -33.2946 96.5219 173.533 -7.60318 100.354 -61.1078 39.1958 4.12014 40.1391 -10.4629 -13.6539 148.315 61.3598 -56.578 -152.988 70.8453 70.0986 -45.7363 -29.2784 -4.76976 128.913 -21.51 -2.21148 24.6646 4.76178 -48.937 6.74765 0.171392 -95.5894 27.4076 9.49928 -14.6342 15.6832 8.85312 -15.0279 -6.70349 13.4377 -11.1498 13.3092 13.4378 -11.1499 -148.785 79.0303 152.87 104.807 -47.4211 -0.077624 91.0033 20.9099 -1.01202 16.4127 28.9828 114.459 -150.055 -41.443 -4.28952 -74.7853 -1.22473 71.4208 -179.848 -14.2603 -127.441 -9.7044 -5.75958 70.9095 -75.6756 10.3581 72.6469 40.706 57.2161 125.744 
-333.708 58.9544 -336.299 70.9771 -34.7698 93.8512 176.897 -17.2494 100.742 -39.0485 31.6546 2.01331 35.0574 -10.8515 -20.7558 147.573 57.0066 -59.6685 -144.157 73.0358 60.616 -40.4869 -29.7863 -4.80033 125.173 -20.1431 -3.29065 26.2378 4.18941 -49.2894 6.17612 -0.779056 -96.2885 28.9182 7.83324 -15.9398 17.1693 7.13365 -16.2582 -4.99715 12.2249 -12.9202 15.0155 12.2249 -12.9202 -177.154 72.9708 168.841 106.199 -46.3112 3.8495 88.6405 21.0815 -2.67616 13.3197 25.4097 116.816 -146.699 -48.6954 4.05859 -79.4962 -4.28129 70.2074 179.125 -17.1512 -133.912 -11.2705 -7.44014 74.7087 -104.009 15.1827 72.4307 11.4347 46.0304 155.473 
-338.568 57.088 -340.619 86.6371 -33.17 103.701 -176.4 -46.8467 106.207 -6.96224 25.6258 0.35909 23.1287 -10.8219 -28.6633 146.558 54.203 -61.315 -159.168 60.7996 75.3319 -30.8379 -29.6735 -3.54064 118.571 -17.1849 -4.77559 27.7351 3.63342 -49.5997 5.24759 0.376529 -96.8518 26.4045 5.98402 -16.1227 14.6446 5.2784 -16.3616 -7.38803 10.5117 -13.6531 12.6246 10.5117 -13.6532 167.223 70.5395 -179.596 107.238 -45.3308 7.29537 88.2794 27.8092 -6.41056 11.2658 22.7211 117.479 -144.916 -49.4942 6.53339 -77.9369 -6.13198 68.8624 179.609 -17.8843 -138.389 -12.2275 -8.67794 77.7389 70.2969 -2.91283 104.297 160.973 -45.8025 -11.0845 
-342.75 54.9222 -344.193 90.0228 -33.1821 105.226 -173.755 -54.6835 107.653 -0.178315 20.497 -0.0139906 23.1653 -8.85856 -30.3358 145.639 52.3884 -62.2387 -160.657 54.9878 75.2543 -16.8198 -29.5828 -2.04906 110.017 -13.252 -5.81875 29.0473 3.14211 -49.9126 4.85806 0.198101 -97.9978 26.5946 4.54275 -18.1032 14.8038 3.75525 -18.2771 -6.96765 9.70795 -15.9964 13.045 9.70797 -15.9964 157.465 60.9083 172.504 111.903 -36.9372 19.4753 88.0784 33.0265 -9.15777 9.7272 20.5677 117.54 -145.737 -53.4684 8.26752 -83.1094 -8.93208 65.3501 178.065 -19.8592 -144.985 -12.9188 -9.6868 80.2316 53.6001 -2.04384 107.187 172.411 -36.911 0.990595 
-346.773 52.8115 -347.574 93.2157 -33.1849 106.428 -173.083 -58.8299 107.342 -0.595395 16.7243 0.00544075 26.3732 -7.19709 -30.7518 144.874 51.1753 -62.7801 -162.3 48.4853 75.1569 -1.31659 -28.3854 -0.178237 101.066 -8.83767 -5.42626 30.1488 2.72682 -50.2293 4.75533 0.472261 -97.8971 26.0414 4.46207 -17.7993 14.2546 3.68732 -17.9703 -7.5422 9.54329 -15.7261 12.4704 9.54328 -15.7261 147.473 57.9967 178.701 112.64 -34.8951 23.0475 88.6935 36.8975 -13.0277 8.65738 19.1157 117.095 -144.665 -53.075 9.17974 -82.7808 -11.209 62.3233 178.508 -19.4483 -149.549 -13.1707 -10.2454 82.1059 41.3688 -8.83017 104.27 179.148 -23.2424 7.03956 
-350.492 50.8624 -350.633 96.1917 -33.2608 107.231 -172.974 -62.7125 106.371 -0.569255 13.6912 0.00343984 28.9211 -5.9402 -31.3477 144.244 50.3575 -63.0867 -160.732 49.1014 73.3723 -2.34131 -28.3118 -0.320037 99.569 -7.91603 -5.23943 31.0363 2.39049 -50.5471 4.11302 0.842136 -98.0813 25.173 3.20725 -17.7175 13.3845 2.43699 -17.8359 -8.36082 8.31874 -16.0149 11.6518 8.31873 -16.0149 145.542 57.4894 -179.727 111.352 -38.0649 20.9868 87.5674 40.3247 -12.9323 7.67947 17.4992 116.838 -140.472 -56.878 16.2034 -83.827 -13.3208 59.0315 178.402 -19.2013 -154.701 -13.194 -10.4981 83.3861 30.6363 -10.5223 99.6751 -173.952 -14.8621 11.2838 
-353.767 49.1529 -353.274 98.8153 -33.4281 107.679 -173.54 -66.0088 104.71 -0.556434 11.2088 0.00203085 31.0803 -4.95257 -31.9898 143.716 49.8107 -63.2344 -159.287 49.0829 71.7523 -2.21533 -28.2764 -0.320284 97.7535 -6.90759 -4.96505 31.7207 2.12992 -50.8507 3.65865 1.20729 -98.0873 24.3687 2.40527 -17.4254 12.5829 1.64798 -17.5106 -9.15743 7.4667 -15.9673 10.8552 7.46667 -15.9672 142.899 56.8389 -177.346 110.267 -40.4725 19.537 86.7469 42.9217 -13.5259 6.97651 16.3476 116.405 -136.455 -59.0495 22.0408 -85.3213 -14.9339 54.5836 178.323 -17.9053 -159.715 -12.9111 -10.3438 84.0572 20.3533 -12.3467 94.8334 -167.462 -6.35273 13.2281 
-356.463 47.7479 -355.417 100.877 -33.6916 107.856 -174.519 -68.5455 102.716 -0.555198 9.15077 0.00120056 32.8914 -4.16175 -32.6502 143.256 49.4581 -63.2633 -157.848 49.1198 70.2779 -2.15587 -28.2944 -0.320142 96.2243 -6.07154 -4.67441 32.2143 1.94138 -51.1206 3.29636 1.52131 -98.0391 23.6902 1.79534 -17.1014 11.9081 1.0522 -17.1613 -9.84072 6.78914 -15.8326 10.1719 6.78915 -15.8326 140.304 56.0639 -175.147 109.277 -42.4446 18.4277 85.9886 44.9023 -14.2335 6.46497 15.5154 115.937 -132.806 -60.4798 27.0444 -87.6361 -15.6663 48.9546 177.941 -15.4292 -164.706 -12.2501 -9.69247 84.0185 10.4565 -13.6649 89.8921 -160.559 1.35648 13.2352 
-358.457 46.7042 -356.977 102.197 -34.0756 107.788 -175.537 -70.1924 100.811 -0.54776 7.42544 0.000954231 34.3792 -3.51927 -33.3139 142.832 49.2498 -63.1938 -156.519 49.2603 69.0243 -2.07024 -28.3346 -0.320974 95.0199 -5.4072 -4.41024 32.5209 1.82476 -51.3426 3.02884 1.79625 -97.9714 23.1087 1.36717 -16.8034 11.3301 0.636948 -16.8456 -10.4325 6.29312 -15.6703 9.58013 6.29309 -15.6703 138.547 55.6331 -173.307 108.19 -44.4594 17.1441 85.2262 46.3704 -14.9102 6.10711 14.9397 115.494 -130.052 -61.3858 30.7386 -90.538 -14.8231 42.0086 177.102 -11.2894 -169.452 -10.9923 -8.30503 83.0468 1.13806 -14.2501 84.9027 -152.789 8.03897 11.3091 
